<svg version="1.1" id="svg2" width="1388.475" height="1388.475" xmlns="http://www.w3.org/2000/svg"><g id="g8"><circle style="fill:#f7df1e;fill-opacity:1;stroke:none;stroke-width:6px" id="path849" cx="694.237" cy="694.237" r="694.237"/><g id="g1518" transform="translate(28.656 -33.837)" style="fill:#fff"><path style="fill:#fff;fill-opacity:1;stroke:none;stroke-width:5.06127px;stroke-opacity:1" d="M353.023 1073.848c-.927-.407-4.416-.767-7.753-.8-3.336-.033-6.3-.439-6.587-.903-.287-.464-2.7-.843-5.364-.843-2.663 0-5.203-.35-5.644-.779-.805-.782-7.338-2.347-13.249-3.174-1.743-.244-3.378-.783-3.635-1.198-.256-.414-1.56-.754-2.897-.754-1.337 0-2.666-.38-2.953-.844-.286-.463-1.245-.843-2.13-.843-1.453 0-5.583-1.518-9.457-3.477-.805-.408-2.229-.74-3.163-.74-.934 0-1.699-.38-1.699-.844 0-.464-.739-.844-1.642-.844-.904 0-3.427-.949-5.609-2.109-2.181-1.16-4.479-2.109-5.106-2.109-.627 0-1.14-.38-1.14-.843 0-.464-.555-.844-1.235-.844s-3.052-1.016-5.272-2.259a319.801 319.801 0 0 0-7.41-4.006c-1.857-.962-3.565-1.942-3.797-2.178-1.095-1.115-7.654-5.053-8.417-5.053-.474 0-.863-.285-.864-.633 0-.348-1.7-1.771-3.777-3.163s-3.784-2.816-3.794-3.164c-.01-.348-.395-.632-.856-.632-.853 0-3.761-2.28-7.262-5.694-1.07-1.044-2.216-1.898-2.546-1.898-.795 0-22.2-21.837-24.362-24.852a144.56 144.56 0 0 0-3.795-4.99 318.207 318.207 0 0 1-2.753-3.478c-.354-.464-1.964-2.552-3.577-4.64-1.614-2.088-2.937-4.27-2.942-4.85-.004-.58-.387-1.055-.851-1.055-.464 0-.844-.404-.844-.9 0-.494-.949-2.143-2.109-3.664-1.16-1.52-2.109-3.172-2.109-3.67 0-.497-.284-1.03-.632-1.185-.348-.155-1.757-2.464-3.13-5.132-1.375-2.667-2.798-4.85-3.164-4.85-.366 0-.666-.558-.666-1.24 0-.682-.759-2.591-1.687-4.243-2.143-3.817-2.143-6.068 0-6.748.928-.295 1.687-.82 1.687-1.165 0-.346 1.33-1.15 2.953-1.788 1.624-.637 2.952-1.423 2.952-1.746 0-.323.665-.816 1.477-1.095.811-.278 2.994-1.47 4.85-2.647 1.856-1.177 3.943-2.388 4.64-2.692.695-.304 2.44-1.435 3.875-2.513 1.436-1.078 3.049-1.96 3.585-1.96s.98-.285.985-.633c.005-.348 1.51-1.352 3.346-2.23 1.835-.88 4.092-2.303 5.016-3.164.924-.86 2.265-1.565 2.98-1.565.716 0 1.301-.38 1.301-.844 0-.463.439-.843.975-.843s2.15-.882 3.585-1.96c1.436-1.078 3.18-2.209 3.875-2.513.696-.304 2.784-1.516 4.64-2.693 1.856-1.177 4.038-2.368 4.85-2.647.812-.278 1.477-.749 1.477-1.046 0-.296 1.233-1.076 2.741-1.732 1.508-.656 2.931-1.416 3.163-1.69.64-.754 6.762-4.529 10.39-6.407 1.772-.916 3.939-2.33 4.816-3.142.877-.812 2.18-1.476 2.895-1.476.716 0 1.3-.38 1.3-.844 0-.464.389-.843.863-.843.824 0 7.538-4.086 8.417-5.121.232-.274 1.655-1.034 3.163-1.69 1.508-.656 2.742-1.436 2.742-1.732 0-.297.664-.77 1.476-1.05.812-.28 2.615-1.246 4.007-2.146 3.534-2.283 4.158-2.158 5.964 1.194.874 1.624 1.883 2.953 2.241 2.953.359 0 .652.759.652 1.687s.38 1.687.843 1.687c.464 0 .844.416.844.924s.854 2.116 1.898 3.573c1.044 1.457 2.422 3.603 3.062 4.77 2.664 4.855 3.146 5.65 5.132 8.46 1.143 1.616 2.377 3.066 2.742 3.22.364.155.663.657.663 1.115 0 .459.474 1.334 1.054 1.946.58.611 1.814 2.197 2.742 3.524 3.072 4.395 19.772 20.55 21.242 20.55.307 0 1.156.53 1.889 1.18 2.046 1.812 7.562 4.725 8.95 4.725.68 0 1.239.286 1.239.637 0 .664 4.796 2.526 8.435 3.274 1.16.238 2.868.765 3.796 1.17 5.875 2.562 44.52 2.488 47.196-.091.441-.425 1.867-.773 3.168-.773 1.301 0 4.333-.949 6.737-2.109 2.405-1.16 4.87-2.108 5.48-2.108.608 0 1.107-.38 1.107-.844 0-.464.759-.843 1.687-.843s1.687-.355 1.687-.787c0-.433.763-1.03 1.696-1.325 3.98-1.264 17.705-16.855 17.705-20.113 0-.69.285-1.38.633-1.535 1.034-.46 3.585-5.775 3.585-7.47 0-.863.38-1.804.844-2.09.464-.287.843-1.616.843-2.953 0-1.337.38-2.666.844-2.952.464-.287.843-1.853.843-3.48s.392-3.69.871-4.585c2.68-5.006 2.823-17.19 3.09-262.502l.266-245.26h136.651l-.354 252.43c-.194 138.837-.586 255.847-.871 260.023-.285 4.175-.84 8.35-1.235 9.278-.724 1.706-2.425 10.67-3.2 16.871-.233 1.856-.764 3.735-1.18 4.176-.417.44-.758 2.221-.758 3.957 0 1.736-.38 3.39-.843 3.677-.464.287-.844 1.594-.844 2.906 0 1.311-.567 3.471-1.26 4.8-.693 1.33-1.262 3.058-1.265 3.843-.003.785-.385 1.661-.849 1.948-.464.286-.843 1.425-.843 2.53 0 1.105-.38 2.244-.844 2.531-.464.287-.844 1.187-.844 2 0 1.32-2.89 8.212-5.082 12.118-.452.806-.822 2.04-.822 2.741 0 .703-.38 1.277-.844 1.277-.464 0-.843.577-.843 1.282 0 .705-.95 2.786-2.11 4.623-1.16 1.837-2.108 3.728-2.108 4.201 0 .473-.38.86-.844.86-.464 0-.843.76-.843 1.687 0 .928-.38 1.687-.844 1.687-.464 0-.843.538-.843 1.195 0 .658-.285 1.322-.633 1.477-.686.305-5.272 7.136-5.272 7.853 0 .24-1.329 1.846-2.953 3.568-1.623 1.721-2.952 3.478-2.952 3.903 0 1.054-22.982 24.149-24.05 24.167-.468.01-1.797.875-2.952 1.927-3.235 2.947-13.259 9.897-14.272 9.897-.497 0-.906.285-.91.633-.003.348-.857 1.052-1.898 1.564-1.04.512-5.666 2.884-10.28 5.272-4.614 2.388-8.884 4.341-9.49 4.341-.605 0-1.1.38-1.1.844 0 .464-.95.843-2.11.843s-2.109.38-2.109.844c0 .464-.764.843-1.698.843-.934 0-2.358.333-3.163.74-3.875 1.96-8.004 3.478-9.458 3.478-.884 0-1.843.38-2.13.843-.286.464-1.827.844-3.424.844-1.596 0-2.902.38-2.902.844 0 .464-1.496.843-3.325.843-1.828 0-3.531.335-3.785.745-.253.41-2.547 1.006-5.097 1.324-2.55.32-4.856.933-5.122 1.364-.267.432-2.475.785-4.906.785-2.432 0-4.782.352-5.223.782-.44.43-4.028 1.02-7.971 1.31-11.986.885-66.103 1.246-67.906.454z" id="path1100"/><path style="fill:#fff;fill-opacity:1;stroke:none;stroke-width:5.06127px;stroke-opacity:1" d="M899.219 1074.54c-6.728-.364-15.648-1.046-19.824-1.515a866.113 866.113 0 0 0-12.653-1.325c-2.783-.26-5.82-.831-6.748-1.268-.928-.436-3.965-1.195-6.749-1.685-2.783-.49-6.769-1.271-8.857-1.736-2.088-.465-4.934-1.045-6.326-1.287-1.392-.243-3.29-.767-4.218-1.164-.928-.398-2.636-.903-3.796-1.123-2.368-.449-7.26-2.108-9.478-3.214-.806-.402-2.397-.73-3.536-.73-1.138 0-2.305-.38-2.592-.844-.286-.464-1.187-.844-2-.844-.814 0-3.447-.949-5.851-2.109-2.405-1.16-4.758-2.109-5.23-2.109-.473 0-1.52-.335-2.325-.745-.805-.41-2.413-1.127-3.573-1.594-1.16-.467-4.921-2.22-8.358-3.894-3.436-1.675-6.758-3.046-7.38-3.046-.624 0-1.136-.284-1.14-.632-.003-.348-.858-1.04-1.898-1.538-3.338-1.599-11.156-5.83-11.592-6.273-.972-.99-7.612-5.053-8.258-5.053-.387 0-1.439-.684-2.338-1.519-.9-.835-2.869-2.245-4.377-3.134-1.508-.889-2.741-1.914-2.741-2.278 0-.363-.407-.661-.904-.661-.497 0-1.404-.475-2.016-1.055-.61-.58-2.165-1.813-3.453-2.741-1.288-.928-2.76-2.1-3.272-2.606-.511-.505-1.352-1.075-1.868-1.265-1.109-.41-13.123-11.194-19.218-17.25-5.669-5.633-16.04-17.22-18.997-21.225-1.302-1.763-3.172-4.044-4.156-5.068-.985-1.025-1.79-2.187-1.79-2.583 0-.396-.684-1.455-1.519-2.355-.835-.9-2.245-2.869-3.134-4.377-.889-1.507-1.914-2.741-2.278-2.741-.363 0-.661-.372-.661-.827 0-1.076-5.973-10.475-6.89-10.842-.386-.155-.73-.914-.764-1.687-.034-.773-.797-2.545-1.697-3.937s-1.865-3.195-2.145-4.007c-.281-.812-.846-1.476-1.256-1.476-1.11 0-.9-2.497.31-3.697.58-.575 2.288-1.59 3.795-2.255 1.508-.664 2.742-1.45 2.742-1.747 0-.297.664-.768 1.476-1.046.812-.28 2.995-1.47 4.85-2.647 1.856-1.177 3.944-2.39 4.64-2.693.696-.305 2.761-1.486 4.59-2.625 5.822-3.629 11.812-6.987 13.335-7.476.812-.26 1.477-.809 1.477-1.219 0-.41.569-.745 1.265-.745s1.265-.38 1.265-.843c0-.464.76-.844 1.687-.844.928 0 1.687-.29 1.687-.643 0-.685 1.048-1.315 6.624-3.984 1.924-.922 3.499-1.966 3.499-2.32 0-.355.398-.645.884-.645s2.961-1.328 5.5-2.952c2.538-1.624 4.815-2.952 5.06-2.952.246 0 2.523-1.33 5.062-2.953 2.538-1.624 4.988-2.952 5.442-2.952.455 0 .828-.38.828-.844 0-.464.582-.843 1.295-.843 1.195 0 5.317-2.24 6.297-3.423.231-.28 1.655-1.045 3.163-1.701 1.508-.656 2.741-1.48 2.741-1.83 0-.351.398-.638.884-.638.487 0 2.961-1.329 5.5-2.953 2.538-1.624 4.805-2.952 5.037-2.952.233 0 1.926-.95 3.763-2.109 5.565-3.513 5.72-3.413 12.902 8.276.832 1.355 2.066 3.016 2.741 3.692.675.675 1.228 1.508 1.228 1.852 0 .343.664 1.36 1.476 2.26.812.9 2.6 3.138 3.973 4.974 6.213 8.308 28.557 30.823 30.59 30.825.36 0 2.148 1.329 3.972 2.952 1.824 1.624 3.817 2.952 4.428 2.952.612 0 1.112.38 1.112.843 0 .464.538.844 1.195.844.658 0 1.322.322 1.477.715.4 1.018 8.11 5.19 9.59 5.19.68 0 1.235.38 1.235.843 0 .464.713.844 1.584.844.871 0 2.004.507 2.519 1.126.514.62 2.553 1.635 4.531 2.256 1.979.62 3.958 1.442 4.399 1.826.44.383 1.864.697 3.163.697 1.3 0 2.362.315 2.362.701 0 .687 5.528 2.369 10.544 3.208 1.392.233 3.29.759 4.218 1.169 3.02 1.334 10.579 1.828 33.673 2.2 14.966.243 23.003.07 23.577-.503.479-.479 2.86-.87 5.291-.87 2.432 0 4.656-.38 4.943-.844.287-.464 1.492-.844 2.678-.844 2.49 0 10.682-2.646 11.1-3.585.154-.348 1.388-.632 2.741-.632 1.353 0 2.46-.38 2.46-.844 0-.464.442-.843.982-.843 1.575 0 7.454-2.79 7.454-3.537 0-.375.728-.681 1.617-.681s1.743-.285 1.898-.633c.154-.348 1.277-1.202 2.494-1.898 4.803-2.747 16.767-13.087 16.767-14.492 0-.421.956-1.793 2.125-3.048 1.17-1.256 2.59-3.327 3.159-4.603.568-1.276 1.32-2.32 1.67-2.32.35 0 .638-.574.638-1.276 0-.703.36-1.936.802-2.742 1.353-2.468 3.228-7.236 3.894-9.9 1.062-4.247 1.398-29.25.406-30.242-.486-.487-.885-1.971-.885-3.3 0-1.327-.903-4.383-2.007-6.79-1.103-2.407-2.525-5.61-3.158-7.117-.633-1.508-1.438-2.742-1.789-2.742-.35 0-.65-.474-.664-1.054-.071-2.794-17.916-20.87-22.195-22.482-.495-.186-1.652-1.04-2.573-1.898-.92-.858-2.007-1.56-2.414-1.56-.408 0-1.985-.948-3.506-2.108-1.52-1.16-3.204-2.11-3.74-2.11s-.974-.379-.974-.843c0-.464-.76-.843-1.688-.843-.927 0-1.69-.285-1.693-.633-.003-.348-.858-1.04-1.898-1.538s-3.79-1.885-6.11-3.081c-9.23-4.761-16.771-8.245-17.847-8.245-.622 0-1.132-.38-1.132-.844 0-.463-.47-.843-1.042-.843-.888 0-6.62-2.502-11.81-5.156-.806-.412-2.04-.749-2.742-.749s-1.277-.38-1.277-.843c0-.464-.474-.847-1.054-.852-.58-.004-2.953-.941-5.273-2.082s-4.882-2.087-5.693-2.101c-.812-.015-1.477-.406-1.477-.87 0-.464-.786-.844-1.747-.844-.961 0-2.269-.521-2.906-1.158-.637-.637-2.887-1.67-5-2.293-2.114-.624-3.843-1.432-3.843-1.794 0-.363-.95-.66-2.11-.66s-2.108-.38-2.108-.843c0-.464-.539-.844-1.197-.844s-2.462-.633-4.007-1.408c-5.12-2.565-5.73-2.81-7.016-2.81-.702 0-1.277-.379-1.277-.843 0-.464-.949-.843-2.109-.843-1.16 0-2.109-.38-2.109-.844a.835.835 0 0 0-.82-.844c-.767 0-8.758-3.41-12.032-5.133-.806-.424-2.04-.771-2.742-.771s-1.276-.286-1.276-.634c0-.35-2.373-1.707-5.273-3.02-6.677-3.02-10.15-4.75-15.213-7.584-2.22-1.243-4.593-2.26-5.273-2.26-.679 0-1.237-.284-1.24-.632-.007-.848-4.885-3.585-6.39-3.585-.658 0-1.197-.38-1.197-.843a.838.838 0 0 0-.827-.844c-.455 0-2.904-1.328-5.442-2.952-2.539-1.624-5.014-2.953-5.5-2.953-.486 0-.884-.38-.884-.843 0-.464-.538-.844-1.195-.844s-1.322-.285-1.476-.632c-.407-.916-9.797-6.96-10.813-6.96-.47 0-.859-.284-.862-.632-.003-.348-1.324-1.53-2.935-2.628-1.61-1.097-3.754-2.71-4.763-3.585-1.008-.874-2.06-1.6-2.337-1.614-.277-.013-2.212-1.565-4.3-3.45-2.087-1.883-5.108-4.435-6.712-5.67-4.726-3.637-17.77-16.978-23.25-23.78-5.555-6.896-13.058-17.277-13.058-18.069 0-.761-4.552-7.594-5.272-7.915-.348-.154-.633-1.008-.633-1.898 0-.889-.38-1.616-.844-1.616-.464 0-.837-.475-.83-1.055.016-1.314-4.424-10.232-5.285-10.615-.348-.154-.633-1.176-.633-2.27 0-1.093-.38-2.223-.844-2.51-.463-.286-.843-1.263-.843-2.17s-.333-2.308-.74-3.113c-1.96-3.874-3.478-8.004-3.478-9.457 0-.885-.38-1.844-.843-2.13-.464-.287-.844-1.752-.844-3.256 0-1.503-.343-3.094-.762-3.535-.419-.44-.961-2.51-1.205-4.597-.77-6.59-2.296-14.699-3.096-16.45-2.432-5.32-2.419-60.704.015-65.796.767-1.603 2.1-8.075 3.087-14.978.249-1.743.792-3.379 1.207-3.635.415-.256.754-1.75.754-3.32 0-1.568.38-3.087.844-3.373.464-.287.842-1.164.84-1.948 0-.785.993-3.894 2.208-6.91 1.216-3.015 2.515-6.242 2.887-7.17 1.194-2.975 8.77-18.542 9.236-18.98.828-.775 5.074-7.548 5.074-8.093 0-.535 5.824-8.817 6.765-9.62.272-.233 1.592-1.941 2.934-3.797 2.88-3.982 25.264-26.571 26.33-26.571.405 0 2.144-1.329 3.865-2.953 1.722-1.624 3.369-2.952 3.66-2.952.292 0 2.38-1.329 4.64-2.953 2.26-1.623 4.488-2.952 4.951-2.952.463 0 .845-.285.848-.633.003-.348.858-1.057 1.898-1.576 5.654-2.822 7.375-3.896 7.375-4.601 0-.43.736-.782 1.637-.782.9 0 1.872-.38 2.159-.844.286-.463 1.226-.843 2.088-.843.862 0 1.693-.285 1.848-.633.332-.746 8.286-4.623 12.513-6.098 4.235-1.48 6.834-2.537 9.558-3.891 1.313-.653 3.306-1.188 4.429-1.188 1.122 0 2.04-.38 2.04-.843 0-.464 1.306-.844 2.903-.844 1.596 0 3.111-.337 3.366-.75.255-.413 1.701-.95 3.213-1.195 5.135-.83 11.182-2.447 11.986-3.205.441-.415 2.738-.755 5.104-.755s4.662-.35 5.103-.777c.861-.836 4.415-1.166 27.49-2.549 18.38-1.102 63.269.65 65.216 2.546.44.43 2.628.78 4.862.78 2.233 0 4.72.365 5.525.81 1.632.902 8.217 2.49 13.069 3.154 1.742.238 3.378.772 3.634 1.187.257.415 1.56.754 2.898.754 1.337 0 2.665.38 2.952.844.287.464 1.426.843 2.53.843 1.106 0 2.227.35 2.491.779.265.428 1.698 1.046 3.186 1.373 1.487.326 3.475.984 4.419 1.461 4.013 2.032 4.725 2.292 6.272 2.292.896 0 1.755.285 1.91.633.371.836 12.653 6.988 13.918 6.972.541-.007 1.11.272 1.265.62.33.741 7.164 5.272 7.953 5.272.743 0 9.134 6.146 9.48 6.945.155.356.725.65 1.266.654.541.004 2.313 1.239 3.936 2.744 1.624 1.505 4.364 3.79 6.09 5.076 4.276 3.191 19.755 18.623 23.876 23.806 1.845 2.32 3.546 4.407 3.781 4.64.235.231 1.552 1.94 2.927 3.795 1.375 1.856 3.176 4.11 4.002 5.01.826.899 1.502 1.89 1.502 2.2 0 .312 1.325 2.233 2.944 4.27 1.62 2.037 2.948 4.147 2.952 4.688 0 .541.293 1.11.641 1.265.787.35 5.265 7.177 5.291 8.066.01.358.761 1.6 1.668 2.76.908 1.16 1.658 2.389 1.669 2.73.01.343-1.595 1.633-3.567 2.868-1.971 1.235-3.774 2.478-4.006 2.76-.232.284-1.871 1.27-3.642 2.194-1.772.924-3.938 2.344-4.816 3.155-.877.812-1.793 1.477-2.035 1.477-.801 0-10.169 6.172-10.455 6.889-.155.386-.638.703-1.073.703-.973 0-7.818 4.397-8.206 5.272-.155.348-.622.632-1.039.632-1.025 0-10.418 6.008-10.771 6.89-.155.386-.637.702-1.073.702-.972 0-7.817 4.398-8.206 5.272-.155.348-.819.633-1.476.633-.658 0-1.195.38-1.195.844a.855.855 0 0 1-.862.843c-1.024 0-7.872 4.362-8.277 5.272-.154.348-.637.633-1.072.633-.973 0-7.818 4.397-8.207 5.272-.154.348-.819.633-1.476.633s-1.195.38-1.195.843c0 .464-.43.844-.954.844s-2.803 1.328-5.063 2.952c-2.26 1.624-4.34 2.953-4.623 2.953-.282 0-2.956 1.708-5.943 3.796-2.986 2.087-6.1 3.796-6.92 3.796-.918 0-1.932-1.13-2.647-2.953-.637-1.624-1.467-2.952-1.844-2.952-.378 0-.686-.439-.686-.975s-.95-2.219-2.11-3.74c-1.16-1.52-2.108-3.17-2.108-3.664 0-.495-.285-.909-.633-.919-.348-.01-1.771-1.717-3.163-3.794-1.392-2.076-2.815-3.776-3.163-3.777-.348-.001-.633-.435-.633-.965 0-1.015-15.375-16.752-16.367-16.752-.318 0-1.547-.898-2.73-1.996-2.54-2.354-16.531-9.813-18.408-9.813-.714 0-1.298-.38-1.298-.844 0-.464-1.116-.843-2.48-.843-1.365 0-2.716-.38-3.003-.844-.287-.464-1.941-.843-3.677-.843s-3.63-.475-4.21-1.055c-1.508-1.51-38.387-1.51-39.899 0-.58.58-2.498 1.055-4.26 1.055-1.764 0-3.206.38-3.206.843 0 .464-1.14.844-2.53.844-1.393 0-2.532.38-2.532.843 0 .464-.576.844-1.282.844-.705 0-2.785.949-4.622 2.109-1.838 1.16-3.565 2.109-3.838 2.109-.942 0-7.554 4.903-10.414 7.721-3.485 3.435-9.368 11.277-9.368 12.488 0 .483-.284.882-.632.886-.856.009-2.742 4.181-2.742 6.066 0 .836-.308 1.52-.684 1.52-1.229 0-3.428 9.541-3.889 16.87-.708 11.267 1.68 30.368 3.798 30.368.426 0 .775.745.775 1.657 0 1.795 4.021 9.552 5.19 10.012.393.154.715.749.715 1.321 0 1.353 11.246 13.02 15.605 16.19 1.855 1.349 4.11 3.117 5.01 3.929.9.812 2.133 1.476 2.742 1.476.608 0 1.106.318 1.106.708 0 .39 1.514 1.433 3.364 2.32 1.85.886 3.37 1.896 3.375 2.244.005.348.768.633 1.696.633.928 0 1.69.284 1.693.632.007.849 4.884 3.585 6.39 3.585.658 0 1.196.38 1.196.844 0 .464.76.844 1.687.844.928 0 1.687.38 1.687.843 0 .464.577.844 1.283.844.705 0 2.785.949 4.622 2.109 1.838 1.16 3.733 2.108 4.213 2.108s1.53.33 2.336.733c.806.403 3.455 1.732 5.887 2.953 2.433 1.22 4.995 2.22 5.694 2.22.7 0 1.272.379 1.272.843 0 .464.574.843 1.277.843.702 0 1.935.337 2.741.75 2.075 1.06 11.222 5.19 13.485 6.089l3.796 1.506c1.044.415 4.176 1.793 6.96 3.062 2.783 1.27 5.82 2.6 6.748 2.959.928.357 3.585 1.484 5.905 2.503 5.805 2.55 9.811 4.268 11.81 5.063 2.317.921 13.622 6.217 22.775 10.668 4.175 2.03 8.035 3.688 8.576 3.683.541-.005 1.11.299 1.265.677.155.378 3.508 2.282 7.452 4.231 7.182 3.55 13.031 6.752 18.558 10.157 1.623 1 3.616 2.048 4.428 2.328.812.28 1.476.75 1.476 1.047 0 .297 1.234 1.076 2.742 1.732 1.508.656 2.931 1.417 3.163 1.69.879 1.036 7.594 5.121 8.418 5.121.473 0 .861.32.861.71 0 .392 1.329 1.427 2.953 2.302 1.623.874 2.952 1.883 2.952 2.241 0 .359.57.652 1.265.652.696 0 1.266.38 1.266.843 0 .464.474.844 1.054.845.58 0 2.547 1.329 4.371 2.952 1.824 1.624 3.678 2.952 4.119 2.952.441 0 1.416.669 2.166 1.486s3.832 3.562 6.848 6.1c7.155 6.02 21.75 20.596 24.923 24.89 1.37 1.855 3.185 4.133 4.033 5.06.848.93 2.163 2.733 2.923 4.008.76 1.276 1.68 2.32 2.044 2.32.364 0 .662.57.662 1.265 0 .696.38 1.266.844 1.266.463 0 .843.405.843.9s.95 2.144 2.109 3.664c1.16 1.521 2.109 3.172 2.109 3.67 0 .497.284 1.03.632 1.185.348.155 1.49 1.935 2.537 3.957a2887.97 2887.97 0 0 0 3.066 5.905c.64 1.226 1.998 4.127 3.02 6.447 1.02 2.32 2.392 5.292 3.048 6.606.657 1.313 1.194 3.116 1.194 4.007 0 .89.38 1.618.843 1.618.464 0 .844 1.117.844 2.481 0 1.365.38 2.716.843 3.002.464.287.844 1.616.844 2.953 0 1.337.335 2.638.746 2.892.41.254 1.002 2.165 1.314 4.248.312 2.083.925 4.008 1.363 4.278.437.27.794 2.1.794 4.068 0 1.968.35 3.938.776 4.38.775.801.939 2.26 2.541 22.733.472 6.031 1.248 12.557 1.723 14.503 1.104 4.512 1.113 12.786.02 15.95-.466 1.344-1.24 7.38-1.72 13.411-1.48 18.604-1.769 21.062-2.567 21.89-.425.44-.772 2.06-.772 3.597s-.352 3.454-.783 4.26c-1.194 2.233-3.435 10.003-3.435 11.906 0 .93-.38 1.925-.843 2.211-.464.287-.844 1.448-.844 2.58 0 1.133-.38 2.06-.844 2.06-.463 0-.847.664-.85 1.476 0 .812-.942 3.374-2.083 5.694-1.141 2.32-2.087 4.882-2.101 5.694-.014.812-.406 1.476-.87 1.476-.464 0-.844.577-.844 1.282 0 .705-.884 2.698-1.964 4.429-1.08 1.73-2.501 4.38-3.158 5.888s-1.481 2.741-1.832 2.741c-.35 0-.638.405-.638.9s-.949 2.144-2.109 3.665c-1.16 1.52-2.109 3.203-2.109 3.74 0 .536-.297.974-.661.974-.364 0-1.284 1.044-2.044 2.32-.76 1.276-2.076 3.08-2.924 4.008-.847.928-2.557 3.016-3.8 4.64-5.047 6.593-12.478 14.396-18.877 19.822a370.147 370.147 0 0 0-7.45 6.515c-1.907 1.727-3.943 3.15-4.523 3.163-.58.012-1.054.402-1.054.866 0 .464-.57.844-1.266.844-.695 0-1.265.297-1.265.661 0 .364-1.234 1.39-2.741 2.278-1.508.888-3.478 2.299-4.377 3.134-.9.835-1.962 1.519-2.36 1.519-.4 0-2.7 1.25-5.114 2.776-2.413 1.528-6.475 3.82-9.027 5.096-2.552 1.275-5.209 2.638-5.905 3.03-.696.391-2.214 1.097-3.374 1.567a265.818 265.818 0 0 0-12.179 5.356c-1.827.867-3.987 1.576-4.8 1.576-.814 0-1.714.38-2 .844-.288.464-1.264.843-2.17.843-.908 0-2.309.329-3.114.73-2.727 1.36-7.357 2.854-10.12 3.265-1.512.225-2.957.747-3.212 1.16-.256.412-1.748.75-3.317.75-1.569 0-3.063.34-3.32.754-.256.415-1.891.954-3.634 1.198-5.372.752-12.363 2.285-14.135 3.1-.927.428-3.964.989-6.748 1.248-2.784.258-8.288.847-12.231 1.309-18.328 2.143-45.061 2.751-67.484 1.535z" id="path1139"/></g></g></svg>